<svg version="1.1" id="Layer_1" xmlns="http://www.w3.org/2000/svg" xmlns:xlink="http://www.w3.org/1999/xlink" x="0px" y="0px"
	 width="100%" viewBox="0 0 496 496" enable-background="new 0 0 496 496" xml:space="preserve">
<path fill="#000000" opacity="1.000000" stroke="none" 
	d="
M168.388947,457.770386 
	C94.864166,426.626099 48.711205,372.275146 33.043922,294.648895 
	C17.917305,219.701447 37.693737,152.939178 90.140350,97.009628 
	C124.395897,60.479191 167.166214,38.477821 216.684586,30.995880 
	C273.855164,22.357735 327.121033,34.040092 375.222809,66.261559 
	C420.240173,96.416893 450.020111,138.097824 465.277618,190.141113 
	C472.767303,215.688370 475.095306,241.880920 473.035919,268.197845 
	C469.277496,316.226593 451.727264,358.949615 420.295258,395.656647 
	C386.453613,435.177765 343.715271,459.774384 292.756866,469.635834 
	C250.398209,477.833069 208.953552,473.759796 168.388947,457.770386 
M294.274902,314.745667 
	C322.528961,296.997711 340.178375,271.710846 347.423157,239.246628 
	C348.848724,232.858673 350.871155,226.319916 348.838623,219.570450 
	C348.053589,216.963562 346.725922,214.772995 343.859558,214.751419 
	C341.218323,214.731567 339.727966,216.775269 339.127625,219.203827 
	C338.092163,223.392807 337.289154,227.638901 336.273956,231.833282 
	C326.274719,273.145264 303.595337,303.299225 260.692627,313.655487 
	C228.356384,321.461151 199.295074,313.743927 175.156342,290.122131 
	C167.777023,282.900848 163.334488,273.670044 158.544403,264.703339 
	C157.606384,262.947449 156.479294,260.920258 154.012299,261.655396 
	C151.687393,262.348236 152.170990,264.571289 152.252716,266.337555 
	C152.687042,275.726318 157.164368,283.500000 162.342407,290.936249 
	C190.496841,331.368927 251.441696,341.036530 294.274902,314.745667 
M276.300995,199.302704 
	C276.633362,201.085556 276.913696,202.880051 277.309326,204.648743 
	C278.043091,207.929047 279.346710,210.867874 283.377319,210.598862 
	C287.065552,210.352707 287.978882,207.428024 288.723236,204.375961 
	C290.672913,196.381622 289.294983,188.558792 287.500397,180.800018 
	C286.744507,177.531982 285.361847,174.051544 281.094299,174.480453 
	C276.793304,174.912750 275.603729,178.477905 275.436676,182.091904 
	C275.184723,187.542770 274.967224,193.035400 276.300995,199.302704 
M212.953293,210.340424 
	C215.129852,201.503922 215.246155,192.605225 213.645752,183.679092 
	C212.944107,179.765778 212.470291,174.729950 207.318008,175.076004 
	C202.425186,175.404633 202.436935,180.471817 202.453842,184.168854 
	C202.492569,192.636139 203.030350,201.100922 203.351349,209.567261 
	C203.449036,212.143967 204.335861,214.171982 207.137741,214.633392 
	C209.967194,215.099335 212.055405,214.163254 212.953293,210.340424 
z"/>
</svg>