<svg version="1.1" id="Layer_1" xmlns="http://www.w3.org/2000/svg" xmlns:xlink="http://www.w3.org/1999/xlink" x="0px" y="0px"
	 width="100%" viewBox="0 0 496 496" enable-background="new 0 0 496 496" xml:space="preserve">
<path fill="#000000" opacity="1.000000" stroke="none" 
	d="
M41.133453,325.667358 
	C29.759974,294.940308 26.332674,263.373688 29.007168,231.444321 
	C32.258820,192.624512 44.998055,156.718216 67.409203,124.606865 
	C102.255226,74.678452 149.782547,43.067829 209.451431,32.327114 
	C283.007233,19.086683 348.397095,38.094753 403.750946,88.936882 
	C435.261414,117.879013 456.521332,153.461807 466.442627,194.947937 
	C485.017883,272.621307 468.192749,342.179871 414.751587,401.944916 
	C382.119476,438.438416 340.892975,461.158661 292.935272,469.643280 
	C218.919647,482.738037 153.325378,463.916748 97.787292,412.697662 
	C71.719147,388.656769 53.315853,359.356262 41.133453,325.667358 
M257.536743,126.643211 
	C260.647156,127.870865 263.639679,129.319016 266.273956,131.413834 
	C278.461060,141.105179 283.636566,153.951447 280.713379,168.987259 
	C277.467957,185.680466 266.734802,196.188263 250.041946,200.216370 
	C247.941406,200.723251 245.737701,200.761612 244.557083,203.444153 
	C245.561691,205.012146 246.595734,206.696640 247.698105,208.335159 
	C254.951050,219.115585 259.840942,230.907776 262.178284,243.654709 
	C263.015198,248.218842 264.840454,248.961426 269.003723,247.660248 
	C323.607727,230.594223 353.686066,163.370621 315.499634,109.226181 
	C291.043701,74.550095 242.747833,60.530701 198.559341,85.492325 
	C170.701874,101.228706 156.389343,126.649361 153.352173,158.440857 
	C152.920578,162.958389 154.665848,164.914154 159.275528,164.688614 
	C168.447433,164.239883 177.595581,164.813370 186.542603,166.881699 
	C192.635757,168.290298 198.576035,170.360138 205.219238,172.321671 
	C203.402985,157.300552 206.630371,144.213913 217.812866,134.244095 
	C229.130615,124.153664 242.250610,121.338440 257.536743,126.643211 
M307.564423,252.649887 
	C306.647491,248.846161 305.730560,245.042435 304.821564,241.271606 
	C304.073090,241.393600 303.705048,241.366135 303.432343,241.514221 
	C302.557281,241.989426 301.667053,242.461899 300.871704,243.054840 
	C289.472443,251.552826 276.753204,257.037964 262.876099,260.031128 
	C256.862457,261.328217 256.844238,261.796906 258.690643,267.856995 
	C270.530762,306.717712 313.478729,335.169189 356.259186,327.967773 
	C405.308014,319.711090 440.013367,273.770447 431.507294,224.435303 
	C424.602051,184.384857 393.609558,152.648743 346.959778,150.376068 
	C343.474945,150.206299 341.921997,151.723114 342.424957,155.134338 
	C344.010712,165.889542 342.041962,176.312775 339.442413,186.648804 
	C338.136536,191.841171 336.431793,196.933228 334.837311,202.306976 
	C353.542358,200.139908 367.907043,206.174377 375.789185,219.151382 
	C387.466736,238.377045 380.039886,264.355835 359.593811,274.125580 
	C340.014404,283.481232 315.197632,274.813843 307.564423,252.649887 
M146.295425,230.591248 
	C171.766998,217.106598 198.982971,232.952927 202.370178,257.113617 
	C202.623642,258.921509 203.084213,260.686371 204.682449,261.923950 
	C205.192398,261.814911 205.759125,261.842957 206.140289,261.590668 
	C218.771729,253.229080 232.430283,247.330963 247.286530,244.230423 
	C250.392410,243.582214 251.251465,241.616898 250.141083,238.623871 
	C248.927078,235.351501 248.104034,231.919662 246.718307,228.727631 
	C229.743835,189.626999 189.577316,168.267136 146.444214,176.795761 
	C106.088287,184.775253 76.152779,219.369339 76.493629,261.765625 
	C76.658409,282.260468 83.340019,301.100708 96.178413,317.232391 
	C112.917747,338.265686 134.557266,350.196594 161.900970,350.716949 
	C165.047958,350.776855 166.952576,350.207489 166.751755,346.371948 
	C166.021057,332.415771 168.120163,318.838837 172.957367,305.726257 
	C174.403641,301.805725 172.768494,300.472290 169.137360,300.366394 
	C165.811172,300.269409 162.407990,300.592194 159.171982,300.000854 
	C143.889679,297.208130 131.460464,285.217743 128.813034,271.054260 
	C125.720642,254.510315 131.862869,239.872833 146.295425,230.591248 
M353.674408,344.515533 
	C352.937012,342.446564 355.598999,338.314636 350.723633,338.746429 
	C335.847076,340.064056 321.632965,337.243103 307.641724,332.556580 
	C306.172729,332.064545 304.623871,330.935181 302.255463,332.416901 
	C304.091919,343.805176 302.412109,354.971802 294.919250,364.495392 
	C287.209076,374.295166 276.967133,378.730896 264.368103,378.410217 
	C246.334106,377.951263 230.937149,364.760468 227.920670,346.059021 
	C226.537216,337.481842 227.922699,329.132660 232.563080,321.538116 
	C239.837326,309.632996 250.968979,304.210999 265.286041,303.184601 
	C263.212616,299.819061 261.639740,297.328857 260.128326,294.801910 
	C253.858124,284.318451 248.716415,273.396179 246.362106,261.272858 
	C245.233276,255.459961 244.156509,255.033218 238.541428,256.852722 
	C236.643326,257.467804 234.733948,258.082916 232.905746,258.873749 
	C196.918381,274.440857 177.733292,301.788086 176.685669,341.009949 
	C176.261215,356.900452 181.179001,371.813416 189.407852,385.552429 
	C211.387924,422.250610 254.952042,438.632721 294.961609,424.158752 
	C331.188568,411.053192 350.425323,383.828308 353.674408,344.515533 
z"/>
</svg>