<svg version="1.1" id="Layer_1" xmlns="http://www.w3.org/2000/svg" xmlns:xlink="http://www.w3.org/1999/xlink" x="0px" y="0px"
	 width="100%" viewBox="0 0 500 500" enable-background="new 0 0 500 500" xml:space="preserve">
<path fill="#FFFFFF" opacity="1.000000" stroke="none" 
	d="
M305.000000,501.000000 
	C203.333359,501.000000 102.166718,501.000000 1.000054,501.000000 
	C1.000036,334.333405 1.000036,167.666794 1.000018,1.000144 
	C167.666565,1.000096 334.333130,1.000096 500.999756,1.000048 
	C500.999847,167.666519 500.999847,334.333038 500.999939,500.999786 
	C435.833344,501.000000 370.666656,501.000000 305.000000,501.000000 
M335.707123,457.179108 
	C357.838593,447.966217 378.150726,435.739746 396.249176,420.008698 
	C475.480194,351.141785 496.261200,239.494965 447.216034,146.663727 
	C401.658844,60.434452 302.184448,13.485024 207.043274,33.308243 
	C84.476219,58.845810 6.445902,178.203781 34.260384,299.764740 
	C51.513474,375.167938 97.076576,428.401917 168.614380,457.837524 
	C223.706833,480.506378 279.588593,479.268097 335.707123,457.179108 
z"/>
<path fill="#1C273C" opacity="1.000000" stroke="none" 
	d="
M335.361237,457.346191 
	C279.588593,479.268097 223.706833,480.506378 168.614380,457.837524 
	C97.076576,428.401917 51.513474,375.167938 34.260384,299.764740 
	C6.445902,178.203781 84.476219,58.845810 207.043274,33.308243 
	C302.184448,13.485024 401.658844,60.434452 447.216034,146.663727 
	C496.261200,239.494965 475.480194,351.141785 396.249176,420.008698 
	C378.150726,435.739746 357.838593,447.966217 335.361237,457.346191 
M181.905350,364.627075 
	C188.193146,369.389648 195.209702,372.094879 203.164246,372.097076 
	C235.148239,372.105865 267.133942,372.299652 299.115479,372.018219 
	C313.726227,371.889648 324.335510,364.474640 330.975067,351.594849 
	C332.332703,348.961243 333.776855,348.064331 336.661804,348.102417 
	C348.487549,348.258545 360.316803,348.218170 372.144257,348.155945 
	C391.016785,348.056641 407.412415,332.282318 407.930298,313.493347 
	C408.200989,303.672791 408.352905,293.818268 407.863617,284.013763 
	C406.762878,261.956177 397.175201,244.537125 378.413757,232.457947 
	C377.232452,231.697388 376.123627,230.824234 374.933929,229.969574 
	C382.914764,218.850357 386.951324,206.812943 386.872101,193.649841 
	C386.706726,166.176514 369.640564,142.828674 343.567871,133.840363 
	C319.065826,125.393524 290.935944,134.087540 274.361938,155.481445 
	C272.537720,157.836197 271.182220,158.013000 268.609589,157.185471 
	C259.573181,154.278793 250.083847,153.219650 241.010605,155.598907 
	C233.160995,157.657303 227.311371,157.614166 222.904694,149.900330 
	C221.651260,147.706192 219.109009,146.206009 217.047791,144.522263 
	C197.832138,128.825653 170.193100,126.339485 148.121567,138.286179 
	C126.387329,150.050308 113.366684,174.612823 115.692513,199.039154 
	C116.772675,210.383316 120.589813,220.640884 127.314018,230.144684 
	C126.249802,230.814392 125.446732,231.322433 124.641060,231.826309 
	C108.686310,241.804657 98.006065,255.963272 95.455322,274.508972 
	C93.611038,287.918304 93.658249,301.825470 94.786987,315.349945 
	C96.450325,335.279816 111.970360,348.161987 132.014618,348.166931 
	C144.502167,348.170013 156.989731,348.167511 167.985992,348.167511 
	C172.929199,354.075867 177.146149,359.116150 181.905350,364.627075 
z"/>
<path fill="#F3F3F3" opacity="1.000000" stroke="none" 
	d="
M181.634232,364.391785 
	C177.146149,359.116150 172.929199,354.075867 167.985992,348.167511 
	C156.989731,348.167511 144.502167,348.170013 132.014618,348.166931 
	C111.970360,348.161987 96.450325,335.279816 94.786987,315.349945 
	C93.658249,301.825470 93.611038,287.918304 95.455322,274.508972 
	C98.006065,255.963272 108.686310,241.804657 124.641060,231.826309 
	C125.446732,231.322433 126.249802,230.814392 127.314018,230.144684 
	C120.589813,220.640884 116.772675,210.383316 115.692513,199.039154 
	C113.366684,174.612823 126.387329,150.050308 148.121567,138.286179 
	C170.193100,126.339485 197.832138,128.825653 217.047791,144.522263 
	C219.109009,146.206009 221.651260,147.706192 222.904694,149.900330 
	C227.311371,157.614166 233.160995,157.657303 241.010605,155.598907 
	C250.083847,153.219650 259.573181,154.278793 268.609589,157.185471 
	C271.182220,158.013000 272.537720,157.836197 274.361938,155.481445 
	C290.935944,134.087540 319.065826,125.393524 343.567871,133.840363 
	C369.640564,142.828674 386.706726,166.176514 386.872101,193.649841 
	C386.951324,206.812943 382.914764,218.850357 374.933929,229.969574 
	C376.123627,230.824234 377.232452,231.697388 378.413757,232.457947 
	C397.175201,244.537125 406.762878,261.956177 407.863617,284.013763 
	C408.352905,293.818268 408.200989,303.672791 407.930298,313.493347 
	C407.412415,332.282318 391.016785,348.056641 372.144257,348.155945 
	C360.316803,348.218170 348.487549,348.258545 336.661804,348.102417 
	C333.776855,348.064331 332.332703,348.961243 330.975067,351.594849 
	C324.335510,364.474640 313.726227,371.889648 299.115479,372.018219 
	C267.133942,372.299652 235.148239,372.105865 203.164246,372.097076 
	C195.209702,372.094879 188.193146,369.389648 181.634232,364.391785 
M189.369492,322.495239 
	C189.432968,327.156219 189.188034,331.846405 189.626007,336.471924 
	C190.462860,345.309662 196.057251,350.154388 204.945511,350.158112 
	C235.932098,350.171143 266.918671,350.173309 297.905273,350.157288 
	C307.007172,350.152557 313.018066,344.525726 313.203278,335.376251 
	C313.398773,325.720184 313.631836,316.024933 313.008820,306.401154 
	C311.924377,289.649780 302.721588,278.400909 287.552185,271.913055 
	C285.904602,271.208405 283.287140,271.370270 281.672394,272.202667 
	C261.388092,282.659119 241.229980,282.623962 220.943542,272.210541 
	C219.317993,271.376099 216.725403,271.216492 215.044464,271.892609 
	C202.889679,276.781281 194.324707,285.525970 191.242401,298.230927 
	C189.430222,305.700470 189.916885,313.727783 189.369492,322.495239 
M279.213135,246.714355 
	C289.981384,236.064804 293.981323,223.339005 290.988068,208.448410 
	C286.647614,186.855896 265.259735,172.959091 242.653580,177.060989 
	C222.467758,180.723709 207.627869,201.656296 210.607788,222.266541 
	C212.905777,238.160248 221.601059,249.371445 236.402557,255.096603 
	C251.829346,261.063599 266.139923,258.133881 279.213135,246.714355 
M144.513031,326.522339 
	C151.962158,326.522339 159.411270,326.522339 167.589661,326.522339 
	C164.748596,295.914185 172.725983,270.428528 200.101410,253.472656 
	C198.311752,253.118225 196.924896,253.130722 195.635864,253.492157 
	C178.990128,258.159607 163.145126,256.157593 147.880081,248.167084 
	C146.223129,247.299728 143.555054,246.972229 141.915100,247.683472 
	C128.350708,253.566376 119.019653,263.592010 117.175537,278.407776 
	C115.768440,289.712463 116.135506,301.313812 116.588242,312.748566 
	C116.912094,320.928009 122.824944,325.933960 131.045593,326.411896 
	C135.191772,326.652985 139.360947,326.498077 144.513031,326.522339 
M335.242371,317.423950 
	C335.242371,320.496338 335.242371,323.568726 335.242371,326.807404 
	C347.905579,326.807404 359.718140,327.018585 371.518890,326.735809 
	C379.890930,326.535187 385.941071,320.367523 386.122253,312.047607 
	C386.332245,302.403992 386.603241,292.716675 385.950867,283.109253 
	C384.811859,266.336121 375.966675,254.610077 360.621979,247.927292 
	C358.963959,247.205200 356.282501,247.315750 354.698517,248.180618 
	C341.817444,255.214005 328.256012,257.681122 313.798981,255.043045 
	C310.176544,254.382019 306.566071,253.655411 302.950104,252.958954 
	C303.370697,254.682510 304.238556,255.494492 305.169525,256.226166 
	C308.954071,259.200439 313.117615,261.791077 316.492065,265.171356 
	C330.612091,279.315857 336.232330,296.703369 335.242371,317.423950 
M137.395538,193.366257 
	C138.657791,199.013367 139.116959,204.998718 141.327286,210.246506 
	C149.111618,228.727982 172.698257,239.032455 190.109940,231.775436 
	C184.735535,206.914825 192.303696,186.033844 210.782944,168.981628 
	C210.294128,168.232941 210.062241,167.793228 209.753250,167.416763 
	C199.504074,154.929626 181.630463,149.454285 166.448227,154.141998 
	C149.593445,159.346130 138.702560,173.728592 137.395538,193.366257 
M312.465759,203.195221 
	C312.960724,212.850815 313.455688,222.506409 313.968048,232.501434 
	C332.110291,238.786804 354.398651,227.768829 362.192474,207.980392 
	C370.154114,187.765869 360.757233,165.242188 340.489349,155.959549 
	C323.512421,148.184143 299.449646,154.807388 291.958649,169.484299 
	C302.051300,178.332932 309.053406,189.195251 312.465759,203.195221 
z"/>
<path fill="#1C273C" opacity="1.000000" stroke="none" 
	d="
M189.369537,321.999725 
	C189.916885,313.727783 189.430222,305.700470 191.242401,298.230927 
	C194.324707,285.525970 202.889679,276.781281 215.044464,271.892609 
	C216.725403,271.216492 219.317993,271.376099 220.943542,272.210541 
	C241.229980,282.623962 261.388092,282.659119 281.672394,272.202667 
	C283.287140,271.370270 285.904602,271.208405 287.552185,271.913055 
	C302.721588,278.400909 311.924377,289.649780 313.008820,306.401154 
	C313.631836,316.024933 313.398773,325.720184 313.203278,335.376251 
	C313.018066,344.525726 307.007172,350.152557 297.905273,350.157288 
	C266.918671,350.173309 235.932098,350.171143 204.945511,350.158112 
	C196.057251,350.154388 190.462860,345.309662 189.626007,336.471924 
	C189.188034,331.846405 189.432968,327.156219 189.369537,321.999725 
z"/>
<path fill="#1C273C" opacity="1.000000" stroke="none" 
	d="
M278.949646,246.958405 
	C266.139923,258.133881 251.829346,261.063599 236.402557,255.096603 
	C221.601059,249.371445 212.905777,238.160248 210.607788,222.266541 
	C207.627869,201.656296 222.467758,180.723709 242.653580,177.060989 
	C265.259735,172.959091 286.647614,186.855896 290.988068,208.448410 
	C293.981323,223.339005 289.981384,236.064804 278.949646,246.958405 
z"/>
<path fill="#1E283D" opacity="1.000000" stroke="none" 
	d="
M144.016388,326.522278 
	C139.360947,326.498077 135.191772,326.652985 131.045593,326.411896 
	C122.824944,325.933960 116.912094,320.928009 116.588242,312.748566 
	C116.135506,301.313812 115.768440,289.712463 117.175537,278.407776 
	C119.019653,263.592010 128.350708,253.566376 141.915100,247.683472 
	C143.555054,246.972229 146.223129,247.299728 147.880081,248.167084 
	C163.145126,256.157593 178.990128,258.159607 195.635864,253.492157 
	C196.924896,253.130722 198.311752,253.118225 200.101410,253.472656 
	C172.725983,270.428528 164.748596,295.914185 167.589661,326.522339 
	C159.411270,326.522339 151.962158,326.522339 144.016388,326.522278 
z"/>
<path fill="#1D283D" opacity="1.000000" stroke="none" 
	d="
M335.242340,316.933350 
	C336.232330,296.703369 330.612091,279.315857 316.492065,265.171356 
	C313.117615,261.791077 308.954071,259.200439 305.169525,256.226166 
	C304.238556,255.494492 303.370697,254.682510 302.950104,252.958954 
	C306.566071,253.655411 310.176544,254.382019 313.798981,255.043045 
	C328.256012,257.681122 341.817444,255.214005 354.698517,248.180618 
	C356.282501,247.315750 358.963959,247.205200 360.621979,247.927292 
	C375.966675,254.610077 384.811859,266.336121 385.950867,283.109253 
	C386.603241,292.716675 386.332245,302.403992 386.122253,312.047607 
	C385.941071,320.367523 379.890930,326.535187 371.518890,326.735809 
	C359.718140,327.018585 347.905579,326.807404 335.242371,326.807404 
	C335.242371,323.568726 335.242371,320.496338 335.242340,316.933350 
z"/>
<path fill="#1D283C" opacity="1.000000" stroke="none" 
	d="
M137.391846,192.942429 
	C138.702560,173.728592 149.593445,159.346130 166.448227,154.141998 
	C181.630463,149.454285 199.504074,154.929626 209.753250,167.416763 
	C210.062241,167.793228 210.294128,168.232941 210.782944,168.981628 
	C192.303696,186.033844 184.735535,206.914825 190.109940,231.775436 
	C172.698257,239.032455 149.111618,228.727982 141.327286,210.246506 
	C139.116959,204.998718 138.657791,199.013367 137.391846,192.942429 
z"/>
<path fill="#1C273C" opacity="1.000000" stroke="none" 
	d="
M312.332672,202.799149 
	C309.053406,189.195251 302.051300,178.332932 291.958649,169.484299 
	C299.449646,154.807388 323.512421,148.184143 340.489349,155.959549 
	C360.757233,165.242188 370.154114,187.765869 362.192474,207.980392 
	C354.398651,227.768829 332.110291,238.786804 313.968048,232.501434 
	C313.455688,222.506409 312.960724,212.850815 312.332672,202.799149 
z"/>
</svg>