<svg version="1.1" id="Layer_1" xmlns="http://www.w3.org/2000/svg" xmlns:xlink="http://www.w3.org/1999/xlink" x="0px" y="0px"
	 width="100%" viewBox="0 0 256 256" enable-background="new 0 0 256 256" xml:space="preserve">
<path fill="#000000" opacity="1.000000" stroke="none" 
	d="
M151.000000,257.000000 
	C100.666672,257.000000 50.833340,257.000000 1.000007,257.000000 
	C1.000005,171.666672 1.000005,86.333351 1.000002,1.000018 
	C86.333321,1.000012 171.666641,1.000012 257.000000,1.000006 
	C257.000000,86.333313 257.000000,171.666626 257.000000,256.999969 
	C221.833328,257.000000 186.666672,257.000000 151.000000,257.000000 
M206.487823,28.993637 
	C205.057312,27.900764 203.658112,26.763849 202.191544,25.721720 
	C184.048111,12.829111 163.745743,5.088333 141.738449,3.207051 
	C114.459213,0.875100 88.355949,5.757170 64.527618,20.143257 
	C44.190971,32.421276 28.273649,48.975662 17.106993,69.890762 
	C9.970878,83.256676 5.530905,97.521973 3.839800,112.731659 
	C1.752317,131.506348 2.732959,149.973312 8.541972,167.913010 
	C16.387386,192.141647 30.643270,212.045090 50.497211,228.087692 
	C69.817902,243.699387 91.994820,252.601471 116.403282,254.772141 
	C143.476761,257.179840 169.411392,252.328781 193.133881,238.009628 
	C220.755814,221.336731 239.911819,197.745605 249.694366,167.180893 
	C256.727661,145.205978 257.205780,122.523346 251.977921,99.915512 
	C245.324188,71.141495 229.968307,47.880360 206.487823,28.993637 
z"/>
<path fill="#B9870D" opacity="1.000000" stroke="none" 
	d="
M206.744415,29.248783 
	C229.968307,47.880360 245.324188,71.141495 251.977921,99.915512 
	C257.205780,122.523346 256.727661,145.205978 249.694366,167.180893 
	C239.911819,197.745605 220.755814,221.336731 193.133881,238.009628 
	C169.411392,252.328781 143.476761,257.179840 116.403282,254.772141 
	C91.994820,252.601471 69.817902,243.699387 50.497211,228.087692 
	C30.643270,212.045090 16.387386,192.141647 8.541972,167.913010 
	C2.732959,149.973312 1.752317,131.506348 3.839800,112.731659 
	C5.530905,97.521973 9.970878,83.256676 17.106993,69.890762 
	C28.273649,48.975662 44.190971,32.421276 64.527618,20.143257 
	C88.355949,5.757170 114.459213,0.875100 141.738449,3.207051 
	C163.745743,5.088333 184.048111,12.829111 202.191544,25.721720 
	C203.658112,26.763849 205.057312,27.900764 206.744415,29.248783 
M140.500122,213.222214 
	C118.002228,213.222031 95.504303,213.238464 73.006439,213.212616 
	C65.178986,213.203613 62.903557,209.912735 65.321526,201.698196 
	C67.175217,201.698196 69.150726,201.698181 71.126236,201.698166 
	C95.790886,201.698044 120.455574,201.715149 145.120148,201.671280 
	C147.603699,201.666855 150.157745,201.594238 152.554626,201.027222 
	C157.182770,199.932373 160.292313,196.823196 160.906540,192.139999 
	C161.465805,187.875824 161.312347,183.486893 161.087997,179.173004 
	C161.031326,178.083313 159.504562,177.070084 158.653351,176.021729 
	C157.589966,177.052429 155.795441,177.965607 155.607147,179.136978 
	C155.136444,182.065231 155.435165,185.111771 155.351700,188.108795 
	C155.194153,193.765564 153.418427,195.685669 147.835892,195.694702 
	C116.671860,195.745102 85.507637,195.745163 54.343597,195.694473 
	C48.752396,195.685379 46.879719,193.743759 46.875980,188.120132 
	C46.846741,144.123749 46.845734,100.127312 46.881466,56.130932 
	C46.885818,50.771481 48.738937,48.929379 54.117851,48.922428 
	C85.448570,48.881935 116.779411,48.881130 148.110123,48.923485 
	C153.452957,48.930706 155.243851,50.756706 155.331955,56.185726 
	C155.442795,63.016796 155.197052,69.859116 155.519516,76.676979 
	C155.589539,78.157265 157.417694,79.554398 158.436066,80.989830 
	C159.375702,79.513519 161.058533,78.070618 161.126648,76.555130 
	C161.425705,69.902397 161.310867,63.228165 161.246521,56.562687 
	C161.155930,47.179638 156.853302,42.961109 147.353378,42.954647 
	C116.522568,42.933678 85.691734,42.933300 54.860931,42.955185 
	C45.199184,42.962044 40.924541,47.276566 40.911423,57.025166 
	C40.883617,77.690109 40.901745,98.355118 40.901791,119.020096 
	C40.901836,142.018219 40.875282,165.016388 40.917068,188.014435 
	C40.933235,196.911819 45.024841,201.137619 53.899719,201.691086 
	C55.336315,201.780670 56.769844,201.919540 58.483620,202.058182 
	C58.483620,203.982834 58.406189,205.477875 58.496544,206.962677 
	C58.980175,214.910217 63.273834,219.104813 71.336327,219.119858 
	C103.000282,219.178970 134.664505,219.184296 166.328430,219.111908 
	C174.318573,219.093643 178.893814,214.352127 178.965347,206.228317 
	C179.057816,195.729980 179.130295,185.226547 178.856491,174.734573 
	C178.808914,172.911102 177.006454,171.133408 176.014542,169.334564 
	C175.014648,171.124619 173.198898,172.892578 173.149750,174.708344 
	C172.870255,185.033295 173.050476,195.369873 172.996368,205.702087 
	C172.966919,211.328644 171.159760,213.145615 165.497986,213.199173 
	C157.499344,213.274872 149.499481,213.220795 140.500122,213.222214 
M149.643250,174.083160 
	C158.076904,168.180267 167.063080,163.667252 177.564789,162.940857 
	C183.637543,162.520813 184.641159,161.488876 185.140991,155.460037 
	C186.529373,138.713867 189.916000,122.630806 198.803497,107.936958 
	C204.652313,98.266991 209.622345,88.058769 214.810486,78.001091 
	C215.966278,75.760483 219.224411,72.820908 215.515625,70.700005 
	C211.673843,68.503044 211.019012,72.862404 209.817047,75.059692 
	C203.906525,85.864578 198.175613,96.767647 192.367416,107.628632 
	C191.604599,109.055077 190.762177,110.438950 189.865601,112.001167 
	C181.149292,107.338211 172.846725,102.896599 164.318420,98.334213 
	C165.260574,96.422333 165.946274,94.933876 166.713608,93.488762 
	C174.285172,79.229095 181.874191,64.978714 189.445007,50.718658 
	C190.145874,49.398525 191.106827,48.076221 191.292618,46.668560 
	C191.433640,45.600075 190.829514,43.838295 190.014542,43.404823 
	C189.188782,42.965618 187.437378,43.448406 186.565720,44.132076 
	C185.593643,44.894512 185.117020,46.317421 184.491531,47.488522 
	C177.434418,60.701298 169.864578,73.672890 163.478882,87.203133 
	C155.932312,103.193115 144.632141,115.749123 130.840622,126.307762 
	C126.742035,129.445602 126.124329,132.306656 128.723618,136.865936 
	C135.446274,148.657913 136.013199,161.482910 134.307770,175.072678 
	C130.665512,175.072678 127.322792,174.774353 124.079811,175.213150 
	C122.698448,175.400055 121.525620,177.128143 120.258011,178.155869 
	C121.417030,179.102264 122.564850,180.851074 123.736862,180.867447 
	C132.700668,180.992584 142.265152,183.103577 149.643250,174.083160 
M149.641663,87.897987 
	C149.642853,81.254250 149.786148,74.605980 149.574936,67.969002 
	C149.491043,65.333061 151.091293,60.967972 146.532394,60.980515 
	C142.197800,60.992443 144.062241,65.206734 143.810303,67.690849 
	C143.535248,70.403008 143.747787,73.164604 143.747787,75.904655 
	C143.334747,75.998596 142.921707,76.092545 142.508652,76.186485 
	C140.103683,71.953659 137.849991,67.622589 135.203247,63.546757 
	C134.389542,62.293705 132.501175,61.738503 131.104904,60.863754 
	C130.398041,62.199711 129.112198,63.521679 129.079529,64.873917 
	C128.887100,72.841721 128.855576,80.820793 129.113007,88.784981 
	C129.157242,90.153214 130.850403,91.468147 131.781860,92.807701 
	C132.834930,91.405525 134.624374,90.087723 134.796585,88.584610 
	C135.232208,84.782860 134.941071,80.897820 134.941071,77.046150 
	C138.361893,81.226204 140.657501,85.601646 143.238678,89.801590 
	C144.012741,91.061081 145.583313,91.831039 146.788971,92.825264 
	C147.735779,91.470169 148.682587,90.115074 149.641663,87.897987 
M74.000298,70.768951 
	C72.353897,76.840607 72.929756,82.676239 76.468002,87.915695 
	C80.966835,94.577614 88.713348,94.516090 93.391777,87.977654 
	C97.757523,81.876221 97.748650,71.597160 93.372322,65.439369 
	C88.768112,58.960934 80.936699,58.993298 76.428322,65.577354 
	C75.504158,66.927025 74.927696,68.514771 74.000298,70.768951 
M102.216064,175.006119 
	C101.549637,174.559372 100.761635,174.223816 100.235619,173.648651 
	C95.059525,167.988937 91.078720,168.253220 86.661453,174.575577 
	C85.763405,175.860947 84.780525,177.087036 83.434975,178.874069 
	C82.423943,176.797424 81.878662,175.452011 81.146973,174.217056 
	C79.007088,170.605347 74.963898,169.120880 72.270332,171.481720 
	C68.124252,175.115646 63.786919,175.017090 59.045856,175.228180 
	C57.917587,175.278427 56.867680,177.088776 55.781723,178.089539 
	C56.885727,179.059219 57.973347,180.839264 59.096500,180.861984 
	C64.754517,180.976364 70.914215,182.578156 75.450912,175.762451 
	C77.157814,180.839188 79.404434,185.544540 84.495117,183.788757 
	C88.143578,182.530380 90.929962,178.772522 94.505470,175.792709 
	C97.977165,183.351349 104.994148,180.664062 111.061050,180.859100 
	C112.046188,180.890778 113.086372,179.210388 114.101112,178.321350 
	C113.091003,177.250061 112.213692,175.471863 111.043625,175.252060 
	C108.467812,174.768173 105.744179,175.071060 102.216064,175.006119 
M99.816269,90.240067 
	C100.868294,93.329163 103.718048,94.107712 104.696236,91.398071 
	C107.103111,84.730911 111.819855,87.501068 115.847504,87.217995 
	C116.271637,88.004532 116.414894,88.536324 116.756409,88.856873 
	C118.140274,90.155746 119.585098,91.389671 121.007431,92.647560 
	C121.400436,90.660439 122.552597,88.455399 122.055511,86.723793 
	C119.860741,79.078239 117.284180,71.535744 114.605736,64.041756 
	C114.136505,62.728905 112.552521,61.019501 111.419075,60.970158 
	C110.357162,60.923927 108.638565,62.637623 108.192863,63.919052 
	C105.252487,72.372803 102.577881,80.918999 99.816269,90.240067 
M58.920620,151.606171 
	C56.531651,151.975281 52.776653,150.553589 53.091713,154.732193 
	C53.174915,155.835632 56.767174,157.451645 58.781761,157.502625 
	C69.590988,157.776138 80.414429,157.769226 91.223557,157.492325 
	C93.053581,157.445450 94.837845,155.612381 96.643250,154.604568 
	C94.859268,153.606461 93.096848,151.792618 91.287750,151.744797 
	C80.811646,151.467865 70.324539,151.607208 58.920620,151.606171 
M62.455845,86.972176 
	C59.389194,87.457840 58.418774,86.125046 58.500683,83.095177 
	C58.671432,76.779175 58.660740,70.447418 58.361946,64.139320 
	C58.306576,62.970284 56.547451,61.881950 55.574669,60.756367 
	C54.613388,61.874054 52.850113,62.969791 52.818829,64.112930 
	C52.586830,72.590210 52.586155,81.080254 52.837399,89.556671 
	C52.871147,90.695251 54.632553,92.619583 55.745945,92.736855 
	C59.528416,93.135254 63.396408,93.085457 67.192192,92.753967 
	C68.222282,92.664009 69.818039,91.009911 69.864273,90.013840 
	C69.908295,89.065292 68.439415,87.664665 67.320023,87.151909 
	C66.211510,86.644142 64.708672,86.997238 62.455845,86.972176 
M54.367874,122.623550 
	C51.842079,126.699341 52.523235,128.041351 57.431595,128.074539 
	C68.906677,128.152176 80.385231,128.217163 91.855286,127.964958 
	C93.450310,127.929886 95.005249,126.072227 96.578743,125.058289 
	C94.920906,124.089996 93.275948,122.309875 91.603172,122.283340 
	C79.468750,122.090782 67.328712,122.251968 54.367874,122.623550 
M72.500900,136.949890 
	C67.353638,136.951614 62.191441,136.737274 57.068554,137.091492 
	C55.599949,137.193039 54.245014,138.938538 52.837955,139.930252 
	C54.276329,140.915771 55.697971,142.726624 57.155724,142.756165 
	C68.773819,142.991699 80.400749,142.992294 92.019203,142.766861 
	C93.551956,142.737106 95.052078,141.025177 96.567314,140.092331 
	C95.021896,139.045609 93.523598,137.188995 91.922699,137.095856 
	C85.799873,136.739639 79.644051,136.950653 72.500900,136.949890 
M78.498421,113.430885 
	C82.820221,113.428360 87.165955,113.687943 91.452263,113.296623 
	C93.210777,113.136086 94.841072,111.571121 96.529694,110.645027 
	C94.938034,109.623528 93.365303,107.752731 91.751678,107.716759 
	C80.288002,107.461220 68.813965,107.478867 57.349010,107.704330 
	C55.832989,107.734138 54.349773,109.432388 52.851372,110.357933 
	C54.418339,111.379501 55.944645,113.200684 57.559387,113.282806 
	C64.191299,113.620079 70.850121,113.428162 78.498421,113.430885 
M110.697487,113.428841 
	C118.514587,113.428078 126.336891,113.575424 134.144394,113.301247 
	C135.700989,113.246590 137.201004,111.580818 138.727112,110.657951 
	C137.306564,109.633255 135.915619,107.773804 134.460587,107.722237 
	C126.321106,107.433746 118.162643,107.460434 110.019791,107.695595 
	C108.588646,107.736923 107.200790,109.276810 105.792946,110.124626 
	C107.111061,111.221199 108.429176,112.317772 110.697487,113.428841 
M110.262367,151.613144 
	C108.725708,152.664383 107.189041,153.715607 105.652382,154.766846 
	C107.149361,155.718231 108.594460,157.375046 110.152969,157.489655 
	C114.959038,157.843109 119.825005,157.826492 124.630402,157.461929 
	C125.996506,157.358292 127.235268,155.576065 128.532425,154.563614 
	C127.228523,153.584396 125.984497,151.873001 124.609711,151.760590 
	C120.139801,151.395050 115.622040,151.614532 110.262367,151.613144 
M106.235558,138.080688 
	C104.960075,140.971786 105.965141,142.684494 109.042404,142.829926 
	C112.690788,143.002380 116.380783,143.106339 119.995041,142.711655 
	C121.132545,142.587433 122.084106,140.760529 123.120789,139.712921 
	C122.135635,138.805374 121.170029,137.146164 120.161964,137.119949 
	C115.723053,137.004517 111.271889,137.360184 106.235558,138.080688 
M107.473801,127.911118 
	C111.292198,127.972656 115.134033,128.294983 118.916367,127.955162 
	C120.251884,127.835175 121.442055,126.097435 122.698593,125.098305 
	C121.544891,124.127556 120.475121,122.472961 119.221153,122.319046 
	C115.945877,121.917038 112.574165,121.965958 109.270554,122.220222 
	C105.713837,122.493965 104.457466,124.263649 107.473801,127.911118 
z"/>
<path fill="#F2F0EA" opacity="1.000000" stroke="none" 
	d="
M141.000122,213.222214 
	C149.499481,213.220795 157.499344,213.274872 165.497986,213.199173 
	C171.159760,213.145615 172.966919,211.328644 172.996368,205.702087 
	C173.050476,195.369873 172.870255,185.033295 173.149750,174.708344 
	C173.198898,172.892578 175.014648,171.124619 176.014542,169.334564 
	C177.006454,171.133408 178.808914,172.911102 178.856491,174.734573 
	C179.130295,185.226547 179.057816,195.729980 178.965347,206.228317 
	C178.893814,214.352127 174.318573,219.093643 166.328430,219.111908 
	C134.664505,219.184296 103.000282,219.178970 71.336327,219.119858 
	C63.273834,219.104813 58.980175,214.910217 58.496544,206.962677 
	C58.406189,205.477875 58.483620,203.982834 58.483620,202.058182 
	C56.769844,201.919540 55.336315,201.780670 53.899719,201.691086 
	C45.024841,201.137619 40.933235,196.911819 40.917068,188.014435 
	C40.875282,165.016388 40.901836,142.018219 40.901791,119.020096 
	C40.901745,98.355118 40.883617,77.690109 40.911423,57.025166 
	C40.924541,47.276566 45.199184,42.962044 54.860931,42.955185 
	C85.691734,42.933300 116.522568,42.933678 147.353378,42.954647 
	C156.853302,42.961109 161.155930,47.179638 161.246521,56.562687 
	C161.310867,63.228165 161.425705,69.902397 161.126648,76.555130 
	C161.058533,78.070618 159.375702,79.513519 158.436066,80.989822 
	C157.417694,79.554398 155.589539,78.157265 155.519516,76.676979 
	C155.197052,69.859116 155.442795,63.016796 155.331955,56.185726 
	C155.243851,50.756706 153.452957,48.930706 148.110123,48.923485 
	C116.779411,48.881130 85.448570,48.881935 54.117851,48.922428 
	C48.738937,48.929379 46.885818,50.771481 46.881466,56.130932 
	C46.845734,100.127312 46.846741,144.123749 46.875980,188.120132 
	C46.879719,193.743759 48.752396,195.685379 54.343597,195.694473 
	C85.507637,195.745163 116.671860,195.745102 147.835892,195.694702 
	C153.418427,195.685669 155.194153,193.765564 155.351700,188.108795 
	C155.435165,185.111771 155.136444,182.065231 155.607147,179.136978 
	C155.795441,177.965607 157.589966,177.052429 158.653351,176.021729 
	C159.504562,177.070084 161.031326,178.083313 161.087997,179.173004 
	C161.312347,183.486893 161.465805,187.875824 160.906540,192.139999 
	C160.292313,196.823196 157.182770,199.932373 152.554626,201.027222 
	C150.157745,201.594238 147.603699,201.666855 145.120148,201.671280 
	C120.455574,201.715149 95.790886,201.698044 71.126236,201.698166 
	C69.150726,201.698181 67.175217,201.698196 65.321526,201.698196 
	C62.903557,209.912735 65.178986,213.203613 73.006439,213.212616 
	C95.504303,213.238464 118.002228,213.222031 141.000122,213.222214 
z"/>
<path fill="#F3F1EC" opacity="1.000000" stroke="none" 
	d="
M149.348083,174.291870 
	C142.265152,183.103577 132.700668,180.992584 123.736862,180.867447 
	C122.564850,180.851074 121.417030,179.102264 120.258018,178.155884 
	C121.525620,177.128143 122.698448,175.400055 124.079811,175.213150 
	C127.322792,174.774353 130.665512,175.072678 134.307770,175.072678 
	C136.013199,161.482910 135.446274,148.657913 128.723618,136.865936 
	C126.124329,132.306656 126.742035,129.445602 130.840622,126.307762 
	C144.632141,115.749123 155.932312,103.193115 163.478882,87.203133 
	C169.864578,73.672890 177.434418,60.701298 184.491531,47.488522 
	C185.117020,46.317421 185.593643,44.894512 186.565720,44.132076 
	C187.437378,43.448406 189.188782,42.965618 190.014542,43.404823 
	C190.829514,43.838295 191.433640,45.600075 191.292618,46.668560 
	C191.106827,48.076221 190.145874,49.398525 189.445007,50.718658 
	C181.874191,64.978714 174.285172,79.229095 166.713608,93.488762 
	C165.946274,94.933876 165.260574,96.422333 164.318420,98.334213 
	C172.846725,102.896599 181.149292,107.338211 189.865601,112.001167 
	C190.762177,110.438950 191.604599,109.055077 192.367416,107.628632 
	C198.175613,96.767647 203.906525,85.864578 209.817047,75.059692 
	C211.019012,72.862404 211.673843,68.503044 215.515625,70.700005 
	C219.224411,72.820908 215.966278,75.760483 214.810486,78.001091 
	C209.622345,88.058769 204.652313,98.266991 198.803497,107.936958 
	C189.916000,122.630806 186.529373,138.713867 185.140991,155.460037 
	C184.641159,161.488876 183.637543,162.520813 177.564789,162.940857 
	C167.063080,163.667252 158.076904,168.180267 149.348083,174.291870 
M183.676559,128.220657 
	C184.792755,124.621346 185.908966,121.022026 187.090424,117.212318 
	C178.395798,112.594856 169.949585,108.109314 164.627350,105.282837 
	C153.906448,115.483177 144.309967,124.613701 134.892120,133.574249 
	C137.214859,142.743988 139.892487,153.314804 142.494247,163.586121 
	C143.847595,161.017471 145.417465,157.735321 147.263214,154.616440 
	C149.262405,151.238297 150.319092,148.451981 147.888992,144.332809 
	C144.501923,138.591507 148.006134,131.325531 154.322495,128.852097 
	C160.486359,126.438385 167.607300,129.759354 169.687973,136.018021 
	C171.806458,142.390427 168.355743,150.189270 161.815002,150.800201 
	C155.397751,151.399582 153.356247,155.256622 151.129013,159.851883 
	C150.004929,162.171158 148.719025,164.412018 147.655777,166.407715 
	C157.781708,162.827820 168.115112,159.174576 178.799042,155.397415 
	C180.210464,147.286102 181.801880,138.140320 183.676559,128.220657 
M154.782822,135.336609 
	C152.156174,137.931641 151.731873,140.850464 154.122772,143.686813 
	C156.198929,146.149780 159.344559,146.798798 161.519058,144.496857 
	C163.013000,142.915359 164.116287,139.609726 163.499008,137.681427 
	C162.344406,134.074661 159.117126,133.037704 154.782822,135.336609 
z"/>
<path fill="#F2F0EA" opacity="1.000000" stroke="none" 
	d="
M149.635529,88.328979 
	C148.682587,90.115074 147.735779,91.470169 146.788971,92.825272 
	C145.583313,91.831039 144.012741,91.061081 143.238678,89.801590 
	C140.657501,85.601646 138.361893,81.226204 134.941071,77.046150 
	C134.941071,80.897820 135.232208,84.782860 134.796585,88.584610 
	C134.624374,90.087723 132.834930,91.405525 131.781860,92.807701 
	C130.850403,91.468147 129.157242,90.153214 129.113007,88.784981 
	C128.855576,80.820793 128.887100,72.841721 129.079529,64.873917 
	C129.112198,63.521679 130.398041,62.199711 131.104904,60.863754 
	C132.501175,61.738503 134.389542,62.293705 135.203247,63.546757 
	C137.849991,67.622589 140.103683,71.953659 142.508652,76.186485 
	C142.921707,76.092545 143.334747,75.998596 143.747787,75.904655 
	C143.747787,73.164604 143.535248,70.403008 143.810303,67.690849 
	C144.062241,65.206734 142.197800,60.992443 146.532394,60.980515 
	C151.091293,60.967972 149.491043,65.333061 149.574936,67.969002 
	C149.786148,74.605980 149.642853,81.254250 149.635529,88.328979 
z"/>
<path fill="#F2F0EB" opacity="1.000000" stroke="none" 
	d="
M74.095627,70.380859 
	C74.927696,68.514771 75.504158,66.927025 76.428322,65.577354 
	C80.936699,58.993298 88.768112,58.960934 93.372322,65.439369 
	C97.748650,71.597160 97.757523,81.876221 93.391777,87.977654 
	C88.713348,94.516090 80.966835,94.577614 76.468002,87.915695 
	C72.929756,82.676239 72.353897,76.840607 74.095627,70.380859 
M85.388374,66.668015 
	C80.412201,67.262169 79.154175,71.363937 79.367783,74.965118 
	C79.593651,78.773087 81.600945,82.516083 83.217545,86.113350 
	C83.330681,86.365112 87.319557,85.756531 88.361328,84.555229 
	C92.609596,79.656357 91.376228,71.309189 85.388374,66.668015 
z"/>
<path fill="#F3F1ED" opacity="1.000000" stroke="none" 
	d="
M102.648468,175.029480 
	C105.744179,175.071060 108.467812,174.768173 111.043625,175.252060 
	C112.213692,175.471863 113.091003,177.250061 114.101105,178.321350 
	C113.086372,179.210388 112.046188,180.890778 111.061050,180.859100 
	C104.994148,180.664062 97.977165,183.351349 94.505470,175.792709 
	C90.929962,178.772522 88.143578,182.530380 84.495117,183.788757 
	C79.404434,185.544540 77.157814,180.839188 75.450912,175.762451 
	C70.914215,182.578156 64.754517,180.976364 59.096500,180.861984 
	C57.973347,180.839264 56.885727,179.059219 55.781723,178.089539 
	C56.867680,177.088776 57.917587,175.278427 59.045856,175.228180 
	C63.786919,175.017090 68.124252,175.115646 72.270332,171.481720 
	C74.963898,169.120880 79.007088,170.605347 81.146973,174.217056 
	C81.878662,175.452011 82.423943,176.797424 83.434975,178.874069 
	C84.780525,177.087036 85.763405,175.860947 86.661453,174.575577 
	C91.078720,168.253220 95.059525,167.988937 100.235619,173.648651 
	C100.761635,174.223816 101.549637,174.559372 102.648468,175.029480 
z"/>
<path fill="#F3F1ED" opacity="1.000000" stroke="none" 
	d="
M99.816467,89.837570 
	C102.577881,80.918999 105.252487,72.372803 108.192863,63.919052 
	C108.638565,62.637623 110.357162,60.923927 111.419075,60.970158 
	C112.552521,61.019501 114.136505,62.728905 114.605736,64.041756 
	C117.284180,71.535744 119.860741,79.078239 122.055511,86.723793 
	C122.552597,88.455399 121.400436,90.660439 121.007431,92.647560 
	C119.585098,91.389671 118.140274,90.155746 116.756409,88.856873 
	C116.414894,88.536324 116.271637,88.004532 115.847504,87.217995 
	C111.819855,87.501068 107.103111,84.730911 104.696236,91.398071 
	C103.718048,94.107712 100.868294,93.329163 99.816467,89.837570 
z"/>
<path fill="#F0ECE2" opacity="1.000000" stroke="none" 
	d="
M59.380890,151.605927 
	C70.324539,151.607208 80.811646,151.467865 91.287750,151.744797 
	C93.096848,151.792618 94.859268,153.606461 96.643250,154.604568 
	C94.837845,155.612381 93.053581,157.445450 91.223557,157.492325 
	C80.414429,157.769226 69.590988,157.776138 58.781761,157.502625 
	C56.767174,157.451645 53.174915,155.835632 53.091713,154.732193 
	C52.776653,150.553589 56.531651,151.975281 59.380890,151.605927 
z"/>
<path fill="#F1EEE6" opacity="1.000000" stroke="none" 
	d="
M62.917320,86.972458 
	C64.708672,86.997238 66.211510,86.644142 67.320023,87.151909 
	C68.439415,87.664665 69.908295,89.065292 69.864273,90.013840 
	C69.818039,91.009911 68.222282,92.664009 67.192192,92.753967 
	C63.396408,93.085457 59.528416,93.135254 55.745945,92.736855 
	C54.632553,92.619583 52.871147,90.695251 52.837399,89.556671 
	C52.586155,81.080254 52.586830,72.590210 52.818829,64.112930 
	C52.850113,62.969791 54.613388,61.874054 55.574669,60.756367 
	C56.547451,61.881950 58.306576,62.970284 58.361946,64.139320 
	C58.660740,70.447418 58.671432,76.779175 58.500683,83.095177 
	C58.418774,86.125046 59.389194,87.457840 62.917320,86.972458 
z"/>
<path fill="#F2F0E9" opacity="1.000000" stroke="none" 
	d="
M54.779167,122.462387 
	C67.328712,122.251968 79.468750,122.090782 91.603172,122.283340 
	C93.275948,122.309875 94.920906,124.089996 96.578743,125.058289 
	C95.005249,126.072227 93.450310,127.929886 91.855286,127.964958 
	C80.385231,128.217163 68.906677,128.152176 57.431595,128.074539 
	C52.523235,128.041351 51.842079,126.699341 54.779167,122.462387 
z"/>
<path fill="#F3F1EC" opacity="1.000000" stroke="none" 
	d="
M73.000717,136.949890 
	C79.644051,136.950653 85.799873,136.739639 91.922699,137.095856 
	C93.523598,137.188995 95.021896,139.045609 96.567322,140.092346 
	C95.052078,141.025177 93.551956,142.737106 92.019203,142.766861 
	C80.400749,142.992294 68.773819,142.991699 57.155724,142.756165 
	C55.697971,142.726624 54.276329,140.915771 52.837955,139.930252 
	C54.245014,138.938538 55.599949,137.193039 57.068554,137.091492 
	C62.191441,136.737274 67.353638,136.951614 73.000717,136.949890 
z"/>
<path fill="#F5F4F3" opacity="1.000000" stroke="none" 
	d="
M77.998734,113.430908 
	C70.850121,113.428162 64.191299,113.620079 57.559387,113.282806 
	C55.944645,113.200684 54.418339,111.379501 52.851368,110.357941 
	C54.349773,109.432388 55.832989,107.734138 57.349010,107.704330 
	C68.813965,107.478867 80.288002,107.461220 91.751678,107.716759 
	C93.365303,107.752731 94.938034,109.623528 96.529694,110.645027 
	C94.841072,111.571121 93.210777,113.136086 91.452263,113.296623 
	C87.165955,113.687943 82.820221,113.428360 77.998734,113.430908 
z"/>
<path fill="#F4F4F2" opacity="1.000000" stroke="none" 
	d="
M110.222382,113.421593 
	C108.429176,112.317772 107.111061,111.221199 105.792946,110.124626 
	C107.200790,109.276810 108.588646,107.736923 110.019791,107.695595 
	C118.162643,107.460434 126.321106,107.433746 134.460587,107.722237 
	C135.915619,107.773804 137.306564,109.633255 138.727112,110.657951 
	C137.201004,111.580818 135.700989,113.246590 134.144394,113.301247 
	C126.336891,113.575424 118.514587,113.428078 110.222382,113.421593 
z"/>
<path fill="#F0ECE3" opacity="1.000000" stroke="none" 
	d="
M110.692535,151.610977 
	C115.622040,151.614532 120.139801,151.395050 124.609711,151.760590 
	C125.984497,151.873001 127.228523,153.584396 128.532425,154.563614 
	C127.235268,155.576065 125.996506,157.358292 124.630402,157.461929 
	C119.825005,157.826492 114.959038,157.843109 110.152969,157.489655 
	C108.594460,157.375046 107.149361,155.718231 105.652382,154.766846 
	C107.189041,153.715607 108.725708,152.664383 110.692535,151.610977 
z"/>
<path fill="#F2F0EB" opacity="1.000000" stroke="none" 
	d="
M106.530365,137.812927 
	C111.271889,137.360184 115.723053,137.004517 120.161964,137.119949 
	C121.170029,137.146164 122.135635,138.805374 123.120789,139.712921 
	C122.084106,140.760529 121.132545,142.587433 119.995041,142.711655 
	C116.380783,143.106339 112.690788,143.002380 109.042404,142.829926 
	C105.965141,142.684494 104.960075,140.971786 106.530365,137.812927 
z"/>
<path fill="#F2EFE8" opacity="1.000000" stroke="none" 
	d="
M107.121315,127.712845 
	C104.457466,124.263649 105.713837,122.493965 109.270554,122.220222 
	C112.574165,121.965958 115.945877,121.917038 119.221153,122.319046 
	C120.475121,122.472961 121.544891,124.127556 122.698593,125.098297 
	C121.442055,126.097435 120.251884,127.835175 118.916367,127.955162 
	C115.134033,128.294983 111.292198,127.972656 107.121315,127.712845 
z"/>
<path fill="#B98810" opacity="1.000000" stroke="none" 
	d="
M183.534943,128.607590 
	C181.801880,138.140320 180.210464,147.286102 178.799042,155.397415 
	C168.115112,159.174576 157.781708,162.827820 147.655777,166.407715 
	C148.719025,164.412018 150.004929,162.171158 151.129013,159.851883 
	C153.356247,155.256622 155.397751,151.399582 161.815002,150.800201 
	C168.355743,150.189270 171.806458,142.390427 169.687973,136.018021 
	C167.607300,129.759354 160.486359,126.438385 154.322495,128.852097 
	C148.006134,131.325531 144.501923,138.591507 147.888992,144.332809 
	C150.319092,148.451981 149.262405,151.238297 147.263214,154.616440 
	C145.417465,157.735321 143.847595,161.017471 142.494247,163.586121 
	C139.892487,153.314804 137.214859,142.743988 134.892120,133.574249 
	C144.309967,124.613701 153.906448,115.483177 164.627350,105.282837 
	C169.949585,108.109314 178.395798,112.594856 187.090424,117.212318 
	C185.908966,121.022026 184.792755,124.621346 183.534943,128.607590 
z"/>
<path fill="#BA8912" opacity="1.000000" stroke="none" 
	d="
M155.118561,135.119614 
	C159.117126,133.037704 162.344406,134.074661 163.499008,137.681427 
	C164.116287,139.609726 163.013000,142.915359 161.519058,144.496857 
	C159.344559,146.798798 156.198929,146.149780 154.122772,143.686813 
	C151.731873,140.850464 152.156174,137.931641 155.118561,135.119614 
z"/>
<path fill="#BA8A13" opacity="1.000000" stroke="none" 
	d="
M85.775620,66.777481 
	C91.376228,71.309189 92.609596,79.656357 88.361328,84.555229 
	C87.319557,85.756531 83.330681,86.365112 83.217545,86.113350 
	C81.600945,82.516083 79.593651,78.773087 79.367783,74.965118 
	C79.154175,71.363937 80.412201,67.262169 85.775620,66.777481 
z"/>
</svg>